<svg width="140" height="42" viewBox="0 0 140 42" fill="none" xmlns="http://www.w3.org/2000/svg">
<path d="M134.017 41.2715H5.25168C2.41888 41.2715 0.101074 38.9499 0.101074 36.1125V5.15895C0.101074 2.32152 2.41883 0 5.25168 0H134.017C136.849 0 139.167 2.32152 139.167 5.15895V36.1125C139.167 38.9499 136.85 41.2715 134.017 41.2715" fill="black"/>
<path d="M134.017 0H5.25168C2.41888 0 0.101074 2.32152 0.101074 5.15895V36.1125C0.101074 38.9499 2.41883 41.2715 5.25168 41.2715H134.017C136.849 41.2715 139.167 38.9499 139.167 36.1125V5.15895C139.167 2.32152 136.85 0 134.017 0H134.017ZM134.017 0.825403C136.402 0.825403 138.343 2.76974 138.343 5.15895V36.1125C138.343 38.5022 136.402 40.4465 134.017 40.4465H5.25168C2.86636 40.4465 0.925179 38.5021 0.925179 36.1125V5.15895C0.925179 2.76974 2.86631 0.825449 5.25168 0.825449H134.017" fill="#A6A6A6"/>
<path d="M48.9476 10.569C48.9476 11.4334 48.692 12.1218 48.1802 12.6353C47.5988 13.2459 46.841 13.5515 45.9095 13.5515C45.0174 13.5515 44.2589 13.2419 43.6351 12.622C43.0103 12.0025 42.6985 11.2344 42.6985 10.3178C42.6985 9.40091 43.0103 8.63319 43.6351 8.01321C44.2589 7.39379 45.0174 7.0838 45.9095 7.0838C46.3521 7.0838 46.7759 7.17051 47.1783 7.34343C47.5806 7.51676 47.9034 7.74685 48.1448 8.035L47.6015 8.57949C47.1924 8.08981 46.629 7.84516 45.9095 7.84516C45.2589 7.84516 44.6963 8.07414 44.2215 8.53238C43.7466 8.99108 43.5093 9.58593 43.5093 10.3178C43.5093 11.0498 43.7466 11.6446 44.2215 12.1034C44.6963 12.5616 45.2588 12.7905 45.9095 12.7905C46.5996 12.7905 47.1751 12.5603 47.6358 12.0993C47.9348 11.799 48.1077 11.3815 48.154 10.8454H45.9094V10.1018H48.9045C48.9334 10.2635 48.9475 10.4187 48.9475 10.569" fill="white"/>
<path d="M48.9477 10.5691H48.8446C48.8438 11.4138 48.5975 12.0699 48.1073 12.5625L48.1063 12.5633L48.1058 12.5642C47.5428 13.1537 46.8192 13.4472 45.9094 13.4484C45.0412 13.4472 44.3144 13.1505 43.7076 12.5492C43.102 11.9466 42.8026 11.2111 42.8015 10.318C42.8026 9.42443 43.102 8.68927 43.7076 8.08714C44.3144 7.48538 45.0412 7.18833 45.9094 7.18708C46.3388 7.18708 46.7477 7.27101 47.1376 7.43823C47.5279 7.60674 47.8362 7.82756 48.0659 8.1017L48.1448 8.03511L48.072 7.96217L47.5287 8.50703L47.6015 8.5796L47.6809 8.51357C47.2526 7.99964 46.6516 7.74056 45.9095 7.74209C45.2347 7.74126 44.6412 7.98276 44.1502 8.45839C43.6545 8.93554 43.4054 9.56387 43.4063 10.318C43.4054 11.0721 43.6545 11.7004 44.1502 12.1776C44.6412 12.6532 45.2347 12.8946 45.9094 12.8938C46.6225 12.8951 47.2302 12.6528 47.7086 12.1724C48.0281 11.8515 48.2092 11.407 48.2567 10.8544L48.2663 10.7423H46.0125V10.2051H48.9045V10.1019L48.8031 10.12C48.8313 10.2765 48.8446 10.4252 48.8446 10.5691H49.0506C49.0506 10.4123 49.0361 10.2511 49.0059 10.0835L48.9906 9.99874H45.8065V10.9487H48.154V10.8455L48.0514 10.8367C48.006 11.3558 47.841 11.7468 47.5629 12.0265C47.1203 12.4682 46.5771 12.6862 45.9095 12.6875C45.283 12.6866 44.7515 12.4706 44.2931 12.0293C43.8392 11.5895 43.6135 11.0281 43.6123 10.318C43.6135 9.60778 43.8392 9.04637 44.2931 8.60663C44.7515 8.16532 45.283 7.94928 45.9095 7.94845C46.6061 7.95011 47.132 8.18062 47.5228 8.64614L47.5952 8.73239L48.2177 8.1081L48.2845 8.04123L48.2237 7.96899C47.9706 7.66679 47.6334 7.42691 47.2189 7.24885C46.8036 7.07023 46.3654 6.98073 45.9095 6.98073C44.9937 6.97994 44.2034 7.30236 43.5624 7.94042C42.919 8.57724 42.5947 9.37769 42.5955 10.318C42.5947 11.2578 42.919 12.0587 43.5628 12.6959C44.2034 13.3335 44.9937 13.6556 45.9095 13.6548C46.8632 13.6556 47.6543 13.3383 48.2547 12.7068L48.1802 12.6354L48.253 12.7084C48.7866 12.1744 49.0513 11.4529 49.0506 10.5691H48.9476H48.9477ZM53.6958 7.98313H50.881V9.94601H53.4194V10.6899H50.881V12.6528H53.6958V13.4133H50.0876V7.2226H53.6958V7.98313" fill="white"/>
<path d="M53.6955 7.98304V7.87987H50.7778V10.0491H53.3161V10.5864L50.7777 10.5866V12.7559H53.5924V13.31H50.1903V7.32569H53.5924V7.98304H53.6955V7.87987V7.98304H53.7985V7.11934H49.9843V13.5164H53.7985V12.5495H50.9837V10.793H53.5221V9.84275H50.9837V8.08622H53.7985V7.98304H53.6955V7.98304ZM57.0446 13.4133H56.2499V7.983H54.5236V7.22247H58.7709V7.983H57.0446V13.4132" fill="white"/>
<path d="M57.0449 13.4133V13.31H56.3531V7.87987H54.6269V7.32573H58.6681V7.87987H56.9419V13.4132H57.0449V13.31V13.4132H57.1479V8.08622H58.8741V7.11934H54.4209V8.08617H56.1471V13.5163H57.1479V13.4132H57.0449V13.4133ZM61.8442 13.4133V7.22247H62.6381V13.4132H61.8442" fill="white"/>
<path d="M61.8443 13.4133H61.9474V7.32569H62.5352V13.31H61.8443V13.4132H61.9474H61.8443V13.5164H62.7413V7.11934H61.7414V13.5164H61.8443V13.4132V13.4133ZM66.1612 13.4133H65.3665V7.983H63.6402V7.22247H67.8875V7.983H66.1612V13.4132" fill="white"/>
<path d="M66.161 13.4132V13.31H65.4693V7.87985H63.7432V7.32571H67.7843V7.87985H66.0581V13.4132H66.161V13.31V13.4132H66.2641V8.0862H67.9903V7.11932H63.5371V8.08615H65.2633V13.5163H66.2641V13.4132H66.161V13.4132ZM71.9821 12.0949C72.4395 12.5588 72.9993 12.7905 73.6613 12.7905C74.3232 12.7905 74.8833 12.5588 75.34 12.0949C75.798 11.631 76.0273 11.038 76.0273 10.3178C76.0273 9.5977 75.798 9.00471 75.34 8.54082C74.8833 8.07692 74.3232 7.84516 73.6613 7.84516C72.9993 7.84516 72.4395 8.07692 71.9821 8.54082C71.5253 9.00471 71.296 9.59766 71.296 10.3178C71.296 11.038 71.5253 11.631 71.9821 12.0949ZM75.9275 12.6132C75.3199 13.239 74.5642 13.5515 73.6613 13.5515C72.7575 13.5515 72.0021 13.239 71.3958 12.6132C70.7878 11.988 70.4852 11.2227 70.4852 10.3178C70.4852 9.41296 70.7878 8.64756 71.3958 8.02253C72.0022 7.39652 72.7575 7.0838 73.6613 7.0838C74.5594 7.0838 75.313 7.39819 75.9235 8.02656C76.5331 8.65489 76.8381 9.41862 76.8381 10.3178C76.8381 11.2227 76.5339 11.988 75.9275 12.6132Z" fill="white"/>
<path d="M71.9821 12.095L71.9089 12.1676C72.3833 12.65 72.9753 12.8951 73.6613 12.8938C74.347 12.8951 74.9397 12.65 75.4134 12.1676C75.8909 11.6846 76.1311 11.0599 76.1304 10.318C76.1311 9.57602 75.8909 8.95126 75.4134 8.46836C74.9397 7.98591 74.347 7.74089 73.6613 7.7421C72.9753 7.74089 72.3833 7.98591 71.9089 8.46836C71.4325 8.95126 71.1918 9.57602 71.1931 10.318C71.1918 11.0599 71.4325 11.6846 71.9089 12.1676L71.9821 12.095L72.0554 12.0225C71.6184 11.5771 71.3999 11.0168 71.3991 10.318C71.3999 9.61915 71.6184 9.05889 72.0554 8.61345C72.4964 8.16815 73.0231 7.9497 73.6613 7.94849C74.2991 7.9497 74.827 8.16815 75.2669 8.61345C75.7047 9.05889 75.9232 9.61915 75.924 10.318C75.9232 11.0168 75.7047 11.5771 75.2669 12.0225C74.827 12.4678 74.2991 12.6862 73.6613 12.6874C73.0231 12.6862 72.4964 12.4678 72.0554 12.0225L71.9821 12.095ZM75.9276 12.6133L75.8539 12.5416C75.2633 13.1477 74.5409 13.4472 73.6613 13.4484C72.7813 13.4472 72.059 13.1477 71.4694 12.5416L71.4666 12.5383L71.4694 12.5416C70.88 11.9333 70.5891 11.1998 70.5883 10.318C70.5891 9.43607 70.88 8.70258 71.4694 8.09438C72.059 7.48817 72.7813 7.18833 73.6613 7.18713C74.5353 7.18833 75.2559 7.48942 75.8499 8.09878C76.4414 8.70981 76.734 9.44215 76.7352 10.318C76.734 11.1998 76.4422 11.9333 75.8539 12.5416L75.9276 12.6133L76.0017 12.685C76.6261 12.0426 76.9419 11.2457 76.9412 10.318C76.942 9.39545 76.6249 8.60024 75.9975 7.95498C75.3699 7.30718 74.5836 6.97962 73.6613 6.98073C72.7342 6.97962 71.9456 7.30565 71.3218 7.95095V7.95049C70.6961 8.59333 70.3814 9.39017 70.3823 10.318C70.3814 11.2457 70.6961 12.0426 71.3218 12.6854L71.3246 12.6883L71.3218 12.685C71.9456 13.3303 72.7342 13.6556 73.6613 13.6548C74.588 13.6556 75.3767 13.3303 76.0017 12.685L75.9276 12.6133V12.6133ZM77.9528 13.4134V7.22256H78.9194L81.9232 12.0385H81.9574L81.9232 10.8455V7.22256H82.7179V13.4133H81.889L78.7463 8.36393H78.7121L78.7463 9.55738V13.4133H77.9528" fill="white"/>
<path d="M77.9526 13.4133H78.0557V7.32569H78.8621L81.8659 12.1416H82.063L82.026 10.8439V7.32573H82.6148V13.31H81.946L78.8034 8.26071H78.6062L78.6431 9.559V13.31H77.9527V13.4132H78.0557H77.9527V13.5164H78.8492V9.55571L78.815 8.3611L78.712 8.36389V8.46706H78.7462V8.36389L78.6588 8.41874L81.8317 13.5164H82.8208V7.11934H81.8201V10.8466L81.8542 12.0412L81.9573 12.0385V11.9353H81.9231V12.0385L82.0104 11.9837L78.9763 7.11934H77.8497V13.5164H77.9527V13.4132L77.9526 13.4133ZM110.258 30.9536H112.18V18.055H110.258L110.258 30.9536ZM127.571 22.7014L125.368 28.2936H125.302L123.015 22.7014H120.944L124.374 30.5175L122.418 34.8651H124.424L129.709 22.7014L127.571 22.7014ZM116.67 29.4886C116.04 29.4886 115.162 29.1734 115.162 28.3931C115.162 27.3975 116.256 27.0159 117.2 27.0159C118.046 27.0159 118.442 27.1984 118.956 27.4476C118.807 28.6422 117.78 29.4886 116.67 29.4886V29.4886ZM116.902 22.4192C115.51 22.4192 114.069 23.0334 113.473 24.3941L115.179 25.1075C115.543 24.3941 116.222 24.1615 116.935 24.1615C117.929 24.1615 118.94 24.7593 118.956 25.8213V25.9539C118.608 25.7548 117.863 25.4561 116.952 25.4561C115.113 25.4561 113.24 26.4681 113.24 28.36C113.24 30.0859 114.748 31.1978 116.438 31.1978C117.73 31.1978 118.442 30.617 118.89 29.9368H118.956V30.9323H120.811V25.9869C120.811 23.6973 119.106 22.4192 116.902 22.4192V22.4192ZM105.023 24.2715H102.289V19.8503H105.023C106.46 19.8503 107.276 21.042 107.276 22.0608C107.276 23.0604 106.46 24.2715 105.023 24.2715ZM104.973 18.055H100.368V30.9536H102.289V26.0667H104.973C107.104 26.0667 109.198 24.5218 109.198 22.0608C109.198 19.5999 107.104 18.055 104.973 18.055V18.055ZM79.858 29.491C78.53 29.491 77.4183 28.3774 77.4183 26.8478C77.4183 25.3022 78.53 24.1717 79.858 24.1717C81.169 24.1717 82.1979 25.3022 82.1979 26.8478C82.1979 28.3774 81.169 29.491 79.858 29.491H79.858ZM82.0651 23.4236H81.9987C81.5673 22.9085 80.7372 22.443 79.6918 22.443C77.5012 22.443 75.4933 24.3711 75.4933 26.8478C75.4933 29.308 77.5011 31.2196 79.6918 31.2196C80.7372 31.2196 81.5673 30.7541 81.9987 30.2225H82.0651V30.854C82.0651 32.5332 81.169 33.4307 79.7252 33.4307C78.5469 33.4307 77.8167 32.5827 77.5176 31.8681L75.8418 32.5662C76.323 33.7297 77.601 35.1594 79.7252 35.1594C81.9822 35.1594 83.8907 33.8293 83.8907 30.588V22.709H82.0651V23.4236ZM85.2182 30.9536H87.1433V18.0546H85.2182V30.9536ZM89.9813 26.6983C89.9314 25.0027 91.2923 24.1385 92.2713 24.1385C93.0353 24.1385 93.6822 24.5206 93.8975 25.0697L89.9813 26.6983ZM95.9557 25.2356C95.591 24.2546 94.4785 22.443 92.2049 22.443C89.9479 22.443 88.0728 24.2216 88.0728 26.8313C88.0728 29.2915 89.9314 31.2196 92.4206 31.2196C94.429 31.2196 95.591 29.9895 96.0721 29.2749L94.5784 28.2773C94.0808 29.0089 93.4 29.491 92.4206 29.491C91.4416 29.491 90.7447 29.042 90.2963 28.1613L96.1545 25.7342L95.9557 25.2356ZM49.2828 23.7895V25.6512H53.7303C53.5975 26.6983 53.249 27.4629 52.7179 27.9948C52.0709 28.6433 51.0585 29.358 49.2827 29.358C46.5444 29.358 44.4037 27.1472 44.4037 24.4045C44.4037 21.6619 46.5444 19.4509 49.2828 19.4509C50.7599 19.4509 51.8383 20.0328 52.635 20.7808L53.946 19.4677C52.8342 18.4037 51.357 17.5892 49.2828 17.5892C45.532 17.5892 42.3789 20.6478 42.3789 24.4045C42.3789 28.1613 45.532 31.2196 49.2828 31.2196C51.3076 31.2196 52.8342 30.555 54.0289 29.308C55.2571 28.0779 55.6389 26.3493 55.6389 24.9531C55.6389 24.5206 55.6059 24.122 55.5391 23.7895H49.2828ZM60.6954 29.491C59.3674 29.491 58.2223 28.3938 58.2223 26.8313C58.2223 25.2521 59.3674 24.1717 60.6954 24.1717C62.0228 24.1717 63.168 25.2521 63.168 26.8313C63.168 28.3939 62.0228 29.491 60.6954 29.491ZM60.6954 22.443C58.2721 22.443 56.2972 24.288 56.2972 26.8313C56.2972 29.358 58.2721 31.2196 60.6954 31.2196C63.1181 31.2196 65.093 29.358 65.093 26.8313C65.093 24.288 63.1181 22.443 60.6954 22.443ZM70.289 29.491C68.9617 29.491 67.8164 28.3938 67.8164 26.8313C67.8164 25.2521 68.9617 24.1717 70.2891 24.1717C71.6166 24.1717 72.7618 25.2521 72.7618 26.8313C72.7618 28.3939 71.6166 29.491 70.2891 29.491H70.289ZM70.289 22.443C67.8659 22.443 65.8914 24.288 65.8914 26.8313C65.8914 29.358 67.8659 31.2196 70.2891 31.2196C72.7119 31.2196 74.6869 29.358 74.6869 26.8313C74.6869 24.288 72.7119 22.443 70.2891 22.443H70.289Z" fill="white"/>
<path d="M10.9263 7.85332C10.5806 8.16572 10.3742 8.68679 10.3742 9.37846V9.2221V32.0463V31.896C10.3742 32.5348 10.5512 33.0281 10.8509 33.3458L10.9275 33.4191V33.4194C11.1701 33.6387 11.4812 33.7552 11.8377 33.7548C12.1861 33.7548 12.5781 33.6435 12.9918 33.4086L27.9442 24.8992L33.0802 21.9759C33.7325 21.6048 34.0987 21.1259 34.1599 20.6382V20.6362C34.0987 20.1474 33.7325 19.6689 33.0803 19.2977L27.9437 16.3748L12.9918 7.86538C12.5772 7.63005 12.185 7.51838 11.8357 7.51838C11.4796 7.51838 11.1689 7.63445 10.9263 7.85332H10.9263Z" fill="#00C1FF"/>
<path d="M10.9275 33.419L10.8509 33.3457C10.5512 33.028 10.3742 32.5347 10.3742 31.8959V32.0463V9.22768V9.37839C10.3742 8.68672 10.5806 8.16565 10.9263 7.85325L23.6893 20.6366L10.9275 33.419Z" fill="url(#paint0_linear_0_1)"/>
<path d="M27.9437 24.8991L23.6888 20.6366L27.9434 16.3748L33.0798 19.2977C33.7321 19.6689 34.0983 20.1473 34.1595 20.6362V20.6381C34.0983 21.1259 33.7321 21.6047 33.0798 21.9759L27.9438 24.8991" fill="url(#paint1_linear_0_1)"/>
<path d="M11.838 33.7547C11.4815 33.755 11.1704 33.6385 10.9278 33.4193V33.419L23.6895 20.6365L27.9444 24.899L12.992 33.4085C12.5783 33.6434 12.1863 33.7547 11.838 33.7547Z" fill="url(#paint2_linear_0_1)"/>
<path d="M23.6894 20.6365L10.9264 7.85322C11.169 7.63435 11.4797 7.51828 11.8357 7.51828C12.1851 7.51828 12.5774 7.6299 12.9919 7.86528L27.9439 16.3747L23.6894 20.6365" fill="url(#paint3_linear_0_1)"/>
<path d="M11.8381 33.9059C11.4816 33.9059 11.1701 33.7895 10.9275 33.5702L10.9271 33.5706C10.9261 33.5696 10.925 33.5687 10.9239 33.5678L10.8575 33.5029C10.8554 33.5009 10.8535 33.4985 10.851 33.4961L10.9275 33.4195C11.1701 33.6387 11.4812 33.7552 11.8378 33.7548C12.1861 33.7548 12.5781 33.6436 12.9918 33.4086L27.9442 24.8992L28.04 24.9952L27.943 25.0503L12.9917 33.5593C12.6147 33.7734 12.2561 33.885 11.9322 33.9036C11.9009 33.9051 11.8695 33.9059 11.8381 33.9059" fill="url(#paint4_linear_0_1)"/>
<path d="M10.8509 33.496C10.5512 33.1783 10.3742 32.6854 10.3742 32.0462V31.8959C10.3742 32.5346 10.5512 33.0279 10.8509 33.3456L10.9275 33.419L10.8509 33.496" fill="url(#paint5_linear_0_1)"/>
<path d="M28.0395 24.9949L27.9437 24.8989L33.0798 21.9757C33.7321 21.6046 34.0983 21.1257 34.1595 20.638C34.1595 20.817 34.1196 20.9959 34.0404 21.1701C33.8806 21.5211 33.5604 21.8528 33.0798 22.1264L28.0395 24.9949" fill="url(#paint6_linear_0_1)"/>
<path d="M34.1593 20.6361C34.0981 20.1472 33.7319 19.6688 33.0797 19.2976L27.9432 16.3747L28.039 16.2787H28.0394L33.0797 19.1472C33.7988 19.5567 34.1589 20.0964 34.1593 20.6361" fill="url(#paint7_linear_0_1)"/>
<path d="M10.3742 9.37843V9.22077C10.3742 9.16392 10.3757 9.10832 10.3787 9.05435V9.05189C10.3787 9.05115 10.3787 9.05036 10.3789 9.04952V9.04345C10.41 8.49326 10.5806 8.0641 10.8509 7.77752L10.9263 7.85325C10.5806 8.16569 10.3742 8.68676 10.3742 9.37843Z" fill="url(#paint8_linear_0_1)"/>
<path d="M27.9435 16.3749L12.9915 7.86541C12.577 7.63008 12.1847 7.51846 11.8354 7.51846C11.4793 7.51846 11.1686 7.63453 10.926 7.8534L10.8507 7.77763C10.8742 7.75269 10.8987 7.72864 10.924 7.70552C10.9248 7.70469 10.926 7.70385 10.9268 7.70307C11.1675 7.48586 11.4749 7.3698 11.8278 7.36771H11.8354C12.1847 7.36771 12.577 7.47937 12.9915 7.7148L28.0397 16.2786L28.0393 16.279L27.9435 16.3749" fill="url(#paint9_linear_0_1)"/>
<defs>
<linearGradient id="paint0_linear_0_1" x1="18.5305" y1="8.98651" x2="7.53169" y2="20.0031" gradientUnits="userSpaceOnUse">
<stop stop-color="#00A0FF"/>
<stop offset="0.00657" stop-color="#00A1FF"/>
<stop offset="0.2601" stop-color="#00BEFF"/>
<stop offset="0.5122" stop-color="#00D2FF"/>
<stop offset="0.7604" stop-color="#00DFFF"/>
<stop offset="1" stop-color="#00E3FF"/>
</linearGradient>
<linearGradient id="paint1_linear_0_1" x1="34.9542" y1="20.5629" x2="10.0284" y2="20.5629" gradientUnits="userSpaceOnUse">
<stop stop-color="#FFE000"/>
<stop offset="0.4087" stop-color="#FFBD00"/>
<stop offset="0.7754" stop-color="#FFA500"/>
<stop offset="1" stop-color="#FF9C00"/>
</linearGradient>
<linearGradient id="paint2_linear_0_1" x1="25.6855" y1="24.6891" x2="7.04709" y2="43.2212" gradientUnits="userSpaceOnUse">
<stop stop-color="#FF3A44"/>
<stop offset="1" stop-color="#C31162"/>
</linearGradient>
<linearGradient id="paint3_linear_0_1" x1="7.63697" y1="5.95803" x2="15.9437" y2="14.2301" gradientUnits="userSpaceOnUse">
<stop stop-color="#32A071"/>
<stop offset="0.0685" stop-color="#2DA771"/>
<stop offset="0.4762" stop-color="#15CF74"/>
<stop offset="0.8009" stop-color="#06E775"/>
<stop offset="1" stop-color="#00F076"/>
</linearGradient>
<linearGradient id="paint4_linear_0_1" x1="25.6759" y1="27.646" x2="10.7494" y2="42.5967" gradientUnits="userSpaceOnUse">
<stop stop-color="#CC2E36"/>
<stop offset="1" stop-color="#9C0E4E"/>
</linearGradient>
<linearGradient id="paint5_linear_0_1" x1="12.0744" y1="8.98642" x2="2.3846" y2="18.692" gradientUnits="userSpaceOnUse">
<stop stop-color="#008DE0"/>
<stop offset="0.00657" stop-color="#008DE0"/>
<stop offset="0.2601" stop-color="#00A7E0"/>
<stop offset="0.5122" stop-color="#00B8E0"/>
<stop offset="0.7604" stop-color="#00C4E0"/>
<stop offset="1" stop-color="#00C7E0"/>
</linearGradient>
<linearGradient id="paint6_linear_0_1" x1="34.9542" y1="20.637" x2="10.0284" y2="20.637" gradientUnits="userSpaceOnUse">
<stop stop-color="#E0C500"/>
<stop offset="0.4087" stop-color="#E0A600"/>
<stop offset="0.7754" stop-color="#E09100"/>
<stop offset="1" stop-color="#E08900"/>
</linearGradient>
<linearGradient id="paint7_linear_0_1" x1="34.9541" y1="20.6371" x2="10.0283" y2="20.6371" gradientUnits="userSpaceOnUse">
<stop stop-color="#FFE840"/>
<stop offset="0.4087" stop-color="#FFCE40"/>
<stop offset="0.7754" stop-color="#FFBC40"/>
<stop offset="1" stop-color="#FFB540"/>
</linearGradient>
<linearGradient id="paint8_linear_0_1" x1="12.0639" y1="9.00408" x2="2.7309" y2="17.9472" gradientUnits="userSpaceOnUse">
<stop stop-color="#40B8FF"/>
<stop offset="0.00657" stop-color="#40B9FF"/>
<stop offset="0.2601" stop-color="#40CEFF"/>
<stop offset="0.5122" stop-color="#40DDFF"/>
<stop offset="0.7604" stop-color="#40E7FF"/>
<stop offset="1" stop-color="#40EAFF"/>
</linearGradient>
<linearGradient id="paint9_linear_0_1" x1="7.618" y1="8.66164" x2="14.2834" y2="15.3378" gradientUnits="userSpaceOnUse">
<stop stop-color="#65B895"/>
<stop offset="0.0685" stop-color="#62BD95"/>
<stop offset="0.4762" stop-color="#50DB97"/>
<stop offset="0.8009" stop-color="#44ED98"/>
<stop offset="1" stop-color="#40F498"/>
</linearGradient>
</defs>
</svg>
