<svg width="140" height="42" viewBox="0 0 140 42" fill="none" xmlns="http://www.w3.org/2000/svg">
<path d="M134.017 0H5.25168C2.41888 0 0.101074 2.32152 0.101074 5.15895V36.1125C0.101074 38.9499 2.41883 41.2715 5.25168 41.2715H134.017C136.85 41.2715 139.167 38.9499 139.167 36.1125V5.15895C139.167 2.32152 136.85 0 134.017 0H134.017ZM134.017 0.825403C136.402 0.825403 138.343 2.76974 138.343 5.15895V36.1125C138.343 38.5022 136.402 40.4465 134.017 40.4465H5.25168C2.86636 40.4465 0.925179 38.5021 0.925179 36.1125V5.15895C0.925179 2.76974 2.86631 0.825449 5.25168 0.825449H134.017" fill="#A6A6A6"/>
</svg>
